<svg xmlns="http://www.w3.org/2000/svg" version="1.1" xmlns:xlink="http://www.w3.org/1999/xlink" viewBox="0 0 12.29314630202319 13.430710121857638"><g transform="matrix(1,0,0,1,1.0705691226912828,10.112465999166353)"><rect width="13.430710121857638" height="13.430710121857638" x="-1.6393510326085066" y="-10.112465999166355" fill="#ffffff"></rect><g clip-path="url(#SvgjsClipPath1002)"><g clip-path="url(#SvgjsClipPath10009e8d54bc-25a3-45f9-94b2-0739bf0a1498)"><path d=" M 3.363320438524311 -9.041896876475072 L 6.788687618116313 -9.041896876475072 C 7.1234429747067995 -9.041896876475072 7.39481575452435 -8.770524096657521 7.39481575452435 -8.435768740067036 L 7.39481575452435 -0.8561281364080351 C 7.39481575452435 -0.5213727798175505 7.1234429747067995 -0.25 6.788687618116313 -0.25 L 3.363320438524311 -0.25 C 3.0285650819338263 -0.25 2.7571923021162754 -0.5213727798175505 2.7571923021162754 -0.8561281364080351 L 2.7571923021162754 -8.435768740067036 C 2.7571923021162754 -8.770524096657521 3.0285650819338263 -9.041896876475072 3.363320438524311 -9.041896876475072 Z" fill="#1b0d48" transform="matrix(1,0,0,1,0,0)" fill-rule="nonzero"></path></g><g clip-path="url(#SvgjsClipPath10009e8d54bc-25a3-45f9-94b2-0739bf0a1498)"><path d=" M 6.788687618116313 -9.041896876475072 L 3.363320438524311 -9.041896876475072 C 3.028579155997933 -9.041896876475072 2.7571923021162754 -8.770510022593413 2.7571923021162754 -8.435768740067036 L 2.7571923021162754 -3.291045606452631 L 7.39481575452435 -7.928669058860706 L 7.39481575452435 -8.435768740067036 C 7.39481575452435 -8.770510022593413 7.123428900642692 -9.041896876475072 6.788687618116313 -9.041896876475072 Z" fill="#465590" transform="matrix(1,0,0,1,0,0)" fill-rule="nonzero"></path></g><g clip-path="url(#SvgjsClipPath10009e8d54bc-25a3-45f9-94b2-0739bf0a1498)"><path d=" M 6.784822931905975 -0.32488242426359726 L 3.3671851247346507 -0.32488242426359903 C 3.075902357504118 -0.32488242426359903 2.8397710672944823 -0.5610137144732352 2.8397710672944823 -0.8522964817037675 L 2.839771067294483 -8.439600394771304 C 2.839771067294483 -8.730883162001838 3.0759023575041184 -8.967014452211474 3.3671851247346516 -8.967014452211474 L 6.784822931905975 -8.967014452211474 C 7.076105699136507 -8.967014452211474 7.312236989346145 -8.730883162001838 7.312236989346145 -8.439600394771304 L 7.312236989346143 -0.8522964817037657 C 7.312236989346143 -0.5610137144732334 7.076105699136507 -0.32488242426359726 6.784822931905975 -0.32488242426359726 Z" fill="#1b0940" transform="matrix(1,0,0,1,0,0)" fill-rule="nonzero"></path></g><g clip-path="url(#SvgjsClipPath10009e8d54bc-25a3-45f9-94b2-0739bf0a1498)"><path d=" M 6.784822931905975 -8.967014452211474 L 3.3671851247346507 -8.967014452211474 C 3.075913304198081 -8.967014452211474 2.839771067294482 -8.730905246813945 2.839771067294482 -8.439633426277377 L 2.839771067294482 -3.3736574031369084 L 7.312236989346143 -7.846090293682499 L 7.312236989346143 -8.439600394771304 C 7.312236989346143 -8.730872215307874 7.076094752442543 -8.967014452211474 6.784822931905975 -8.967014452211474 Z" fill="#44437d" transform="matrix(1,0,0,1,0,0)" fill-rule="nonzero"></path></g><g clip-path="url(#SvgjsClipPath10009e8d54bc-25a3-45f9-94b2-0739bf0a1498)"><path d=" M 4.713417186175844 -1.6880596483193582 L 4.356742983618134 -0.9277074100645031 L 6.8705396901609515 -0.9277074100645031 C 6.982681653272957 -0.9277074100645031 7.073617389487197 -1.0186431462787464 7.073617389487197 -1.1307851093907493 L 7.073617389487197 -3.6445818159335674 L 5.756783368449446 -2.9530342048251965 L 4.713384154669772 -1.6880596483193582 Z" fill="#392c80" transform="matrix(1,0,0,1,0,0)" fill-rule="nonzero"></path></g><g clip-path="url(#SvgjsClipPath10009e8d54bc-25a3-45f9-94b2-0739bf0a1498)"><path d=" M 3.1707467581287334 -0.9605737586054293 C 3.2025891299814497 -0.9398299727926638 3.240608393469496 -0.9277074100645031 3.2814683664796727 -0.9277074100645031 L 4.356742983618134 -0.9277074100645031 L 7.073617389487197 -3.6445818159335674 L 7.073617389487197 -4.863444389963896 L 4.907939725429626 -3.452008135537991 L 3.1707467581287334 -0.9605737586054293 Z" fill="#473e95" transform="matrix(1,0,0,1,0,0)" fill-rule="nonzero"></path></g><g clip-path="url(#SvgjsClipPath10009e8d54bc-25a3-45f9-94b2-0739bf0a1498)"><path d=" M 3.0783906671534274 -2.0144109283036293 L 3.0783906671534274 -1.1307851093907475 C 3.0783906671534274 -1.0594700877828487 3.1151547334107645 -0.9968093207656263 3.1707467581287334 -0.9605737586054275 L 7.073617389487197 -4.8634443899638935 L 7.073617389487197 -6.0096376506374 L 5.125551287427236 -4.766662077175035 L 3.0783906671534274 -2.0144109283036293 Z" fill="#5b54a6" transform="matrix(1,0,0,1,0,0)" fill-rule="nonzero"></path></g><g clip-path="url(#SvgjsClipPath10009e8d54bc-25a3-45f9-94b2-0739bf0a1498)"><path d=" M 4.398957248377234 -5.459200633465548 L 3.0783906671534274 -3.2630018577981117 L 3.0783906671534274 -2.0144109283036293 L 7.073617389487197 -6.009637650637401 L 7.073617389487197 -7.258228580131883 L 5.888116636588866 -6.698080300175073 L 4.398957248377234 -5.459200633465548 Z" fill="#6f6cb9" transform="matrix(1,0,0,1,0,0)" fill-rule="nonzero"></path></g><g clip-path="url(#SvgjsClipPath10009e8d54bc-25a3-45f9-94b2-0739bf0a1498)"><path d=" M 6.8705396901609515 -8.379416990709428 L 6.331828857644405 -8.379416990709428 L 3.744636144611197 -6.986346253659157 L 3.078357635647356 -5.125945768712379 L 3.078357635647356 -3.262968826292041 L 7.073617389487197 -7.258228580131883 L 7.073617389487197 -8.176339291383183 C 7.073617389487197 -8.288481254495187 6.982681653272957 -8.379416990709428 6.8705396901609515 -8.379416990709428 Z" fill="#a8b5ed" transform="matrix(1,0,0,1,0,0)" fill-rule="nonzero"></path></g><g clip-path="url(#SvgjsClipPath10009e8d54bc-25a3-45f9-94b2-0739bf0a1498)"><path d=" M 6.331861889150476 -8.379416990709428 L 3.2814683664796727 -8.379416990709428 C 3.169326403367668 -8.379416990709428 3.0783906671534274 -8.288514286001258 3.0783906671534274 -8.176339291383183 L 3.0783906671534274 -5.125945768712379 L 6.331861889150476 -8.379416990709428 Z" fill="#ccd6f9" transform="matrix(1,0,0,1,0,0)" fill-rule="nonzero"></path></g><g clip-path="url(#SvgjsClipPath10009e8d54bc-25a3-45f9-94b2-0739bf0a1498)"><path d=" M 4.716456084734402 -0.6428106701996921 L 5.435551971906223 -0.6428106701996921 C 5.4699761330989345 -0.6428106701996921 5.497882423862734 -0.6149043794358917 5.497882423862734 -0.5804802182431814 L 5.497882423862734 -0.5804471867371088 C 5.497882423862734 -0.5460230255444003 5.4699761330989345 -0.5181167347805999 5.435551971906223 -0.5181167347805999 L 4.716456084734402 -0.5181167347805999 C 4.6820319235416905 -0.5181167347805999 4.654125632777891 -0.5460230255444003 4.654125632777891 -0.5804471867371088 L 4.654125632777891 -0.5804802182431814 C 4.654125632777891 -0.6149043794358917 4.6820319235416905 -0.6428106701996921 4.716456084734402 -0.6428106701996921 Z" fill="#392c80" transform="matrix(1,0,0,1,0,0)" fill-rule="nonzero"></path></g><g clip-path="url(#SvgjsClipPath10009e8d54bc-25a3-45f9-94b2-0739bf0a1498)"><path d=" M 5.4165918874213075 -1.6219966361767932 C 5.4165918874213075 -1.4338951385307714 5.264105525966333 -1.2814087770757974 5.0760040283203125 -1.2814087770757974 C 4.887902530674292 -1.2814087770757974 4.735416169219318 -1.4338951385307714 4.735416169219318 -1.6219966361767932 C 4.735416169219318 -1.8100981338228141 4.887902530674292 -1.9625844952777882 5.0760040283203125 -1.9625844952777882 C 5.264105525966333 -1.9625844952777882 5.4165918874213075 -1.8100981338228141 5.4165918874213075 -1.6219966361767932 Z" fill="#ffffff" transform="matrix(1,0,0,1,0,0)" fill-rule="nonzero"></path></g><g clip-path="url(#SvgjsClipPath10009e8d54bc-25a3-45f9-94b2-0739bf0a1498)"><path d=" M 5.159672833198871 -1.6219966361767932 C 5.159672833198871 -1.5757876270081992 5.1222130374889066 -1.5383278312982345 5.0760040283203125 -1.5383278312982345 C 5.0297950191517184 -1.5383278312982345 4.992335223441754 -1.5757876270081992 4.992335223441754 -1.6219966361767932 C 4.992335223441754 -1.6682056453453864 5.0297950191517184 -1.705665441055352 5.0760040283203125 -1.705665441055352 C 5.1222130374889066 -1.705665441055352 5.159672833198871 -1.6682056453453864 5.159672833198871 -1.6219966361767932 Z" fill="#5b54a6" transform="matrix(1,0,0,1,0,0)" fill-rule="nonzero"></path></g><g clip-path="url(#SvgjsClipPath10009e8d54bc-25a3-45f9-94b2-0739bf0a1498)"><path d=" M 4.233997907057248 -1.6219966361767932 C 4.233997907057248 -1.4338951385307714 4.081511545602274 -1.2814087770757974 3.8934100479562535 -1.2814087770757974 C 3.7053085503102325 -1.2814087770757974 3.552822188855259 -1.4338951385307714 3.552822188855259 -1.6219966361767932 C 3.552822188855259 -1.8100981338228141 3.7053085503102325 -1.9625844952777882 3.8934100479562535 -1.9625844952777882 C 4.081511545602274 -1.9625844952777882 4.233997907057248 -1.8100981338228141 4.233997907057248 -1.6219966361767932 Z" fill="#ffffff" transform="matrix(1,0,0,1,0,0)" fill-rule="nonzero"></path></g><g clip-path="url(#SvgjsClipPath10009e8d54bc-25a3-45f9-94b2-0739bf0a1498)"><path d=" M 3.977078852834812 -1.6219966361767932 C 3.977078852834812 -1.5757876270081992 3.9396190571248475 -1.5383278312982345 3.8934100479562535 -1.5383278312982345 C 3.84720103878766 -1.5383278312982345 3.8097412430776947 -1.5757876270081992 3.8097412430776947 -1.6219966361767932 C 3.8097412430776947 -1.6682056453453864 3.84720103878766 -1.705665441055352 3.8934100479562535 -1.705665441055352 C 3.9396190571248475 -1.705665441055352 3.977078852834812 -1.6682056453453864 3.977078852834812 -1.6219966361767932 Z" fill="#5b54a6" transform="matrix(1,0,0,1,0,0)" fill-rule="nonzero"></path></g><g clip-path="url(#SvgjsClipPath10009e8d54bc-25a3-45f9-94b2-0739bf0a1498)"><path d=" M 6.599185867785366 -1.6219966361767932 C 6.599185867785366 -1.4338951385307714 6.4466995063303925 -1.2814087770757974 6.2585980086843715 -1.2814087770757974 C 6.07049651103835 -1.2814087770757974 5.918010149583377 -1.4338951385307714 5.918010149583377 -1.6219966361767932 C 5.918010149583377 -1.8100981338228141 6.07049651103835 -1.9625844952777882 6.2585980086843715 -1.9625844952777882 C 6.4466995063303925 -1.9625844952777882 6.599185867785366 -1.8100981338228141 6.599185867785366 -1.6219966361767932 Z" fill="#ffffff" transform="matrix(1,0,0,1,0,0)" fill-rule="nonzero"></path></g><g clip-path="url(#SvgjsClipPath10009e8d54bc-25a3-45f9-94b2-0739bf0a1498)"><path d=" M 6.342266813562929 -1.6219966361767932 C 6.342266813562929 -1.5757876270081992 6.304807017852965 -1.5383278312982345 6.2585980086843715 -1.5383278312982345 C 6.2123889995157775 -1.5383278312982345 6.174929203805813 -1.5757876270081992 6.174929203805813 -1.6219966361767932 C 6.174929203805813 -1.6682056453453864 6.2123889995157775 -1.705665441055352 6.2585980086843715 -1.705665441055352 C 6.304807017852965 -1.705665441055352 6.342266813562929 -1.6682056453453864 6.342266813562929 -1.6219966361767932 Z" fill="#5b54a6" transform="matrix(1,0,0,1,0,0)" fill-rule="nonzero"></path></g><g clip-path="url(#SvgjsClipPath10009e8d54bc-25a3-45f9-94b2-0739bf0a1498)"><path d=" M 4.623274206107314 -8.722680401802197 L 5.528733850533311 -8.722680401802197 C 5.562373571380879 -8.722680401802197 5.5896439477287565 -8.695410025454319 5.5896439477287565 -8.661770304606751 L 5.5896439477287565 -8.66173727310068 C 5.5896439477287565 -8.628097552253113 5.562373571380879 -8.600827175905236 5.528733850533311 -8.600827175905236 L 4.623274206107314 -8.600827175905236 C 4.589634485259746 -8.600827175905236 4.5623641089118685 -8.628097552253113 4.5623641089118685 -8.66173727310068 L 4.5623641089118685 -8.661770304606751 C 4.5623641089118685 -8.695410025454319 4.589634485259746 -8.722680401802197 4.623274206107314 -8.722680401802197 Z" fill="#ccd6f9" transform="matrix(1,0,0,1,0,0)" fill-rule="nonzero"></path></g><g clip-path="url(#SvgjsClipPath10009e8d54bc-25a3-45f9-94b2-0739bf0a1498)"><path d=" M 4.188018050606023 -8.653677585619286 C 4.188018050606023 -8.609894868681023 4.15252515297321 -8.574401971048209 4.1087424360349445 -8.574401971048209 C 4.06495971909668 -8.574401971048209 4.029466821463867 -8.609894868681023 4.029466821463867 -8.653677585619286 C 4.029466821463867 -8.697460302557552 4.06495971909668 -8.732953200190366 4.1087424360349445 -8.732953200190366 C 4.15252515297321 -8.732953200190366 4.188018050606023 -8.697460302557552 4.188018050606023 -8.653677585619286 Z" fill="#6f6cb9" transform="matrix(1,0,0,1,0,0)" fill-rule="nonzero"></path></g><g clip-path="url(#SvgjsClipPath10009e8d54bc-25a3-45f9-94b2-0739bf0a1498)"><path d=" M 3.832367824736523 -8.653677585619286 C 3.832367824736523 -8.605224712207608 3.7930890180228767 -8.56594590549396 3.7446361446111966 -8.56594590549396 C 3.6961832711995166 -8.56594590549396 3.65690446448587 -8.605224712207608 3.65690446448587 -8.653677585619286 C 3.65690446448587 -8.702130459030966 3.6961832711995166 -8.741409265744615 3.7446361446111966 -8.741409265744615 C 3.7930890180228767 -8.741409265744615 3.832367824736523 -8.702130459030966 3.832367824736523 -8.653677585619286 Z" fill="#ffffff" transform="matrix(1,0,0,1,0,0)" fill-rule="nonzero"></path></g></g><g><path d=" M 0.063 0.1140000000000001 Q 0.0945 0.11550000000000016 0.1455 0.11700000000000021 Q 0.1965 0.11850000000000005 0.246 0.11850000000000005 Q 0.3165 0.11850000000000005 0.381 0.11700000000000021 Q 0.4455 0.11550000000000016 0.47250000000000003 0.11550000000000016 Q 0.654 0.11550000000000016 0.744 0.19800000000000018 Q 0.834 0.2805000000000001 0.834 0.41100000000000014 Q 0.834 0.4650000000000002 0.8160000000000001 0.5242500000000001 Q 0.798 0.5835000000000001 0.75375 0.6337500000000001 Q 0.7095 0.6840000000000002 0.633 0.7155000000000001 Q 0.5565 0.7470000000000001 0.4395 0.7470000000000001 L 0.2955 0.7470000000000001 L 0.2955 0.7170000000000001 L 0.4245 0.7170000000000001 Q 0.531 0.7170000000000001 0.58725 0.6765000000000001 Q 0.6435 0.6360000000000001 0.6637500000000001 0.5700000000000002 Q 0.684 0.5040000000000001 0.684 0.4275000000000001 Q 0.684 0.28500000000000014 0.62775 0.21450000000000014 Q 0.5715 0.14400000000000013 0.435 0.14400000000000013 Q 0.366 0.14400000000000013 0.34500000000000003 0.1695000000000002 Q 0.324 0.19500000000000017 0.324 0.27300000000000013 L 0.324 1.0170000000000001 Q 0.324 1.0710000000000002 0.33525 1.098 Q 0.34650000000000003 1.1250000000000002 0.3795 1.1340000000000001 Q 0.41250000000000003 1.1430000000000002 0.47550000000000003 1.1460000000000001 L 0.47550000000000003 1.1760000000000002 Q 0.4365 1.1730000000000003 0.3765 1.1722500000000002 Q 0.3165 1.1715000000000002 0.255 1.1715000000000002 Q 0.1965 1.1715000000000002 0.1455 1.1722500000000002 Q 0.0945 1.1730000000000003 0.063 1.1760000000000002 L 0.063 1.1460000000000001 Q 0.114 1.1430000000000002 0.14025 1.1340000000000001 Q 0.1665 1.1250000000000002 0.17550000000000002 1.098 Q 0.1845 1.0710000000000002 0.1845 1.0170000000000001 L 0.1845 0.27300000000000013 Q 0.1845 0.21750000000000014 0.17550000000000002 0.19125000000000014 Q 0.1665 0.16500000000000004 0.14025 0.1552500000000001 Q 0.114 0.14550000000000018 0.063 0.14400000000000013 L 0.063 0.1140000000000001 M 1.14307470703125 0.0015000000000000568 L 1.14307470703125 0.5625000000000001 Q 1.18207470703125 0.46050000000000013 1.25182470703125 0.4215000000000001 Q 1.32157470703125 0.3825000000000002 1.39807470703125 0.3825000000000002 Q 1.45507470703125 0.3825000000000002 1.4933247070312499 0.3975000000000002 Q 1.53157470703125 0.4125000000000001 1.55707470703125 0.4395000000000001 Q 1.58557470703125 0.46950000000000014 1.59757470703125 0.5145000000000002 Q 1.60957470703125 0.5595000000000001 1.60957470703125 0.6360000000000001 L 1.60957470703125 1.0365000000000002 Q 1.60957470703125 1.0995000000000001 1.63582470703125 1.122 Q 1.66207470703125 1.1445 1.7235747070312502 1.1445 L 1.7235747070312502 1.1760000000000002 Q 1.69807470703125 1.1745 1.6455747070312499 1.1722500000000002 Q 1.59307470703125 1.1700000000000002 1.54357470703125 1.1700000000000002 Q 1.49407470703125 1.1700000000000002 1.4468247070312499 1.1722500000000002 Q 1.3995747070312499 1.1745 1.37557470703125 1.1760000000000002 L 1.37557470703125 1.1445 Q 1.4295747070312501 1.1445 1.45207470703125 1.122 Q 1.47457470703125 1.0995000000000001 1.47457470703125 1.0365000000000002 L 1.47457470703125 0.6030000000000001 Q 1.47457470703125 0.5565000000000001 1.46707470703125 0.5175000000000002 Q 1.45957470703125 0.47850000000000015 1.43332470703125 0.4545000000000001 Q 1.4070747070312501 0.4305000000000001 1.3530747070312499 0.4305000000000001 Q 1.29157470703125 0.4305000000000001 1.24432470703125 0.4650000000000002 Q 1.19707470703125 0.49950000000000017 1.17007470703125 0.5610000000000002 Q 1.14307470703125 0.6225000000000002 1.14307470703125 0.7020000000000002 L 1.14307470703125 1.0365000000000002 Q 1.14307470703125 1.0995000000000001 1.1655747070312499 1.122 Q 1.18807470703125 1.1445 1.2420747070312501 1.1445 L 1.2420747070312501 1.1760000000000002 Q 1.21807470703125 1.1745 1.17082470703125 1.1722500000000002 Q 1.12357470703125 1.1700000000000002 1.07407470703125 1.1700000000000002 Q 1.02457470703125 1.1700000000000002 0.97207470703125 1.1722500000000002 Q 0.91957470703125 1.1745 0.89407470703125 1.1760000000000002 L 0.89407470703125 1.1445 Q 0.95557470703125 1.1445 0.98182470703125 1.122 Q 1.0080747070312501 1.0995000000000001 1.0080747070312501 1.0365000000000002 L 1.0080747070312501 0.1815000000000001 Q 1.0080747070312501 0.1140000000000001 0.98407470703125 0.08175000000000021 Q 0.96007470703125 0.0495000000000001 0.89407470703125 0.0495000000000001 L 0.89407470703125 0.018000000000000238 Q 0.94207470703125 0.022500000000000187 0.98707470703125 0.022500000000000187 Q 1.03057470703125 0.022500000000000187 1.07032470703125 0.01725000000000021 Q 1.11007470703125 0.012000000000000233 1.14307470703125 0.0015000000000000568 M 2.15709375 0.3825000000000002 Q 2.25309375 0.3825000000000002 2.32959375 0.4245000000000001 Q 2.40609375 0.46650000000000014 2.45184375 0.5565000000000001 Q 2.49759375 0.6465000000000002 2.49759375 0.7905000000000002 Q 2.49759375 0.9345000000000001 2.45184375 1.0237500000000002 Q 2.40609375 1.1130000000000002 2.32959375 1.1550000000000002 Q 2.25309375 1.197 2.15709375 1.197 Q 2.06259375 1.197 1.98534375 1.1550000000000002 Q 1.90809375 1.1130000000000002 1.86234375 1.0237500000000002 Q 1.81659375 0.9345000000000001 1.81659375 0.7905000000000002 Q 1.81659375 0.6465000000000002 1.86234375 0.5565000000000001 Q 1.90809375 0.46650000000000014 1.98534375 0.4245000000000001 Q 2.06259375 0.3825000000000002 2.15709375 0.3825000000000002 M 2.15709375 0.4125000000000001 Q 2.07159375 0.4125000000000001 2.01684375 0.5010000000000001 Q 1.96209375 0.5895000000000001 1.96209375 0.7905000000000002 Q 1.96209375 0.9915000000000002 2.01684375 1.07925 Q 2.07159375 1.1670000000000003 2.15709375 1.1670000000000003 Q 2.24259375 1.1670000000000003 2.29734375 1.07925 Q 2.35209375 0.9915000000000002 2.35209375 0.7905000000000002 Q 2.35209375 0.5895000000000001 2.29734375 0.5010000000000001 Q 2.24259375 0.4125000000000001 2.15709375 0.4125000000000001 M 3.11555419921875 0.3825000000000002 Q 3.17255419921875 0.3825000000000002 3.21080419921875 0.3975000000000002 Q 3.24905419921875 0.4125000000000001 3.27455419921875 0.4395000000000001 Q 3.30305419921875 0.46950000000000014 3.31505419921875 0.5145000000000002 Q 3.32705419921875 0.5595000000000001 3.32705419921875 0.6360000000000001 L 3.32705419921875 1.0365000000000002 Q 3.32705419921875 1.0995000000000001 3.35330419921875 1.122 Q 3.37955419921875 1.1445 3.44105419921875 1.1445 L 3.44105419921875 1.1760000000000002 Q 3.41555419921875 1.1745 3.36305419921875 1.1722500000000002 Q 3.31055419921875 1.1700000000000002 3.26105419921875 1.1700000000000002 Q 3.21155419921875 1.1700000000000002 3.16430419921875 1.1722500000000002 Q 3.11705419921875 1.1745 3.09305419921875 1.1760000000000002 L 3.09305419921875 1.1445 Q 3.1470541992187497 1.1445 3.16955419921875 1.122 Q 3.19205419921875 1.0995000000000001 3.19205419921875 1.0365000000000002 L 3.19205419921875 0.6030000000000001 Q 3.19205419921875 0.5565000000000001 3.1845541992187503 0.5175000000000002 Q 3.17705419921875 0.47850000000000015 3.15080419921875 0.4545000000000001 Q 3.1245541992187498 0.4305000000000001 3.07055419921875 0.4305000000000001 Q 3.00755419921875 0.4305000000000001 2.9603041992187498 0.46650000000000014 Q 2.91305419921875 0.5025000000000002 2.88680419921875 0.5647500000000002 Q 2.86055419921875 0.6270000000000001 2.86055419921875 0.7035000000000001 L 2.86055419921875 1.0365000000000002 Q 2.86055419921875 1.0995000000000001 2.88305419921875 1.122 Q 2.90555419921875 1.1445 2.95955419921875 1.1445 L 2.95955419921875 1.1760000000000002 Q 2.93555419921875 1.1745 2.88830419921875 1.1722500000000002 Q 2.84105419921875 1.1700000000000002 2.79155419921875 1.1700000000000002 Q 2.74205419921875 1.1700000000000002 2.68955419921875 1.1722500000000002 Q 2.63705419921875 1.1745 2.61155419921875 1.1760000000000002 L 2.61155419921875 1.1445 Q 2.67305419921875 1.1445 2.69930419921875 1.122 Q 2.72555419921875 1.0995000000000001 2.72555419921875 1.0365000000000002 L 2.72555419921875 0.5670000000000002 Q 2.72555419921875 0.49950000000000017 2.70155419921875 0.46725000000000017 Q 2.67755419921875 0.43500000000000016 2.61155419921875 0.43500000000000016 L 2.61155419921875 0.4035000000000002 Q 2.65955419921875 0.40800000000000014 2.70455419921875 0.40800000000000014 Q 2.74805419921875 0.40800000000000014 2.78780419921875 0.40275000000000016 Q 2.82755419921875 0.3975000000000002 2.86055419921875 0.3870000000000001 L 2.86055419921875 0.5640000000000002 Q 2.89955419921875 0.4620000000000002 2.96930419921875 0.4222500000000001 Q 3.03905419921875 0.3825000000000002 3.11555419921875 0.3825000000000002 M 3.871531494140625 0.3825000000000002 Q 4.003531494140625 0.3825000000000002 4.077781494140625 0.4627500000000001 Q 4.152031494140625 0.5430000000000001 4.152031494140625 0.7125000000000001 L 3.622531494140625 0.7125000000000001 L 3.621031494140625 0.6840000000000002 L 4.008031494140625 0.6840000000000002 Q 4.011031494140625 0.6105000000000002 3.9960314941406248 0.5482500000000001 Q 3.981031494140625 0.4860000000000001 3.948781494140625 0.4485000000000001 Q 3.916531494140625 0.41100000000000014 3.865531494140625 0.41100000000000014 Q 3.796531494140625 0.41100000000000014 3.743281494140625 0.4800000000000001 Q 3.690031494140625 0.5490000000000002 3.679531494140625 0.6990000000000001 L 3.684031494140625 0.7050000000000001 Q 3.681031494140625 0.7275000000000001 3.679531494140625 0.7545000000000002 Q 3.678031494140625 0.7815000000000001 3.678031494140625 0.8085000000000002 Q 3.678031494140625 0.9105000000000001 3.711031494140625 0.9840000000000002 Q 3.744031494140625 1.0575 3.797281494140625 1.0957500000000002 Q 3.850531494140625 1.1340000000000001 3.907531494140625 1.1340000000000001 Q 3.952531494140625 1.1340000000000001 3.993031494140625 1.1197500000000002 Q 4.033531494140625 1.1055000000000001 4.068031494140625 1.0725000000000002 Q 4.102531494140625 1.0395 4.128031494140625 0.9840000000000002 L 4.158031494140625 0.9960000000000002 Q 4.141531494140625 1.0455 4.104031494140625 1.092 Q 4.066531494140625 1.1385 4.009531494140625 1.16775 Q 3.952531494140625 1.197 3.877531494140625 1.197 Q 3.769531494140625 1.197 3.692281494140625 1.1475000000000002 Q 3.615031494140625 1.098 3.573781494140625 1.01025 Q 3.532531494140625 0.9225000000000001 3.532531494140625 0.8085000000000002 Q 3.532531494140625 0.6765000000000001 3.574531494140625 0.5812500000000002 Q 3.616531494140625 0.4860000000000001 3.693031494140625 0.43425000000000014 Q 3.769531494140625 0.3825000000000002 3.871531494140625 0.3825000000000002 M 5.041538818359375 0.1140000000000001 L 5.041538818359375 0.14400000000000013 Q 4.990538818359375 0.14550000000000018 4.964288818359375 0.1552500000000001 Q 4.938038818359375 0.16500000000000004 4.929038818359375 0.19125000000000014 Q 4.920038818359375 0.21750000000000014 4.920038818359375 0.27300000000000013 L 4.920038818359375 1.0170000000000001 Q 4.920038818359375 1.0710000000000002 4.929038818359375 1.098 Q 4.938038818359375 1.1250000000000002 4.964288818359375 1.1340000000000001 Q 4.990538818359375 1.1430000000000002 5.041538818359375 1.1460000000000001 L 5.041538818359375 1.1760000000000002 Q 5.007038818359375 1.1730000000000003 4.955288818359375 1.1722500000000002 Q 4.903538818359375 1.1715000000000002 4.851038818359375 1.1715000000000002 Q 4.792538818359375 1.1715000000000002 4.741538818359375 1.1722500000000002 Q 4.690538818359375 1.1730000000000003 4.659038818359375 1.1760000000000002 L 4.659038818359375 1.1460000000000001 Q 4.710038818359375 1.1430000000000002 4.736288818359375 1.1340000000000001 Q 4.762538818359375 1.1250000000000002 4.771538818359375 1.098 Q 4.780538818359375 1.0710000000000002 4.780538818359375 1.0170000000000001 L 4.780538818359375 0.27300000000000013 Q 4.780538818359375 0.21750000000000014 4.771538818359375 0.19125000000000014 Q 4.762538818359375 0.16500000000000004 4.736288818359375 0.1552500000000001 Q 4.710038818359375 0.14550000000000018 4.659038818359375 0.14400000000000013 L 4.659038818359375 0.1140000000000001 Q 4.690538818359375 0.11550000000000016 4.741538818359375 0.11700000000000021 Q 4.792538818359375 0.11850000000000005 4.851038818359375 0.11850000000000005 Q 4.903538818359375 0.11850000000000005 4.955288818359375 0.11700000000000021 Q 5.007038818359375 0.11550000000000016 5.041538818359375 0.1140000000000001 M 5.652022705078125 0.3825000000000002 Q 5.709022705078125 0.3825000000000002 5.747272705078125 0.3975000000000002 Q 5.785522705078125 0.4125000000000001 5.811022705078125 0.4395000000000001 Q 5.839522705078125 0.46950000000000014 5.851522705078125 0.5145000000000002 Q 5.863522705078125 0.5595000000000001 5.863522705078125 0.6360000000000001 L 5.863522705078125 1.0365000000000002 Q 5.863522705078125 1.0995000000000001 5.889772705078125 1.122 Q 5.916022705078125 1.1445 5.977522705078125 1.1445 L 5.977522705078125 1.1760000000000002 Q 5.952022705078125 1.1745 5.899522705078125 1.1722500000000002 Q 5.847022705078125 1.1700000000000002 5.797522705078125 1.1700000000000002 Q 5.7480227050781245 1.1700000000000002 5.700772705078125 1.1722500000000002 Q 5.653522705078125 1.1745 5.629522705078125 1.1760000000000002 L 5.629522705078125 1.1445 Q 5.683522705078125 1.1445 5.706022705078125 1.122 Q 5.728522705078125 1.0995000000000001 5.728522705078125 1.0365000000000002 L 5.728522705078125 0.6030000000000001 Q 5.728522705078125 0.5565000000000001 5.721022705078125 0.5175000000000002 Q 5.713522705078125 0.47850000000000015 5.687272705078125 0.4545000000000001 Q 5.661022705078125 0.4305000000000001 5.607022705078125 0.4305000000000001 Q 5.544022705078125 0.4305000000000001 5.496772705078125 0.46650000000000014 Q 5.449522705078125 0.5025000000000002 5.423272705078125 0.5647500000000002 Q 5.397022705078125 0.6270000000000001 5.397022705078125 0.7035000000000001 L 5.397022705078125 1.0365000000000002 Q 5.397022705078125 1.0995000000000001 5.419522705078125 1.122 Q 5.442022705078125 1.1445 5.496022705078125 1.1445 L 5.496022705078125 1.1760000000000002 Q 5.472022705078125 1.1745 5.424772705078125 1.1722500000000002 Q 5.377522705078125 1.1700000000000002 5.328022705078125 1.1700000000000002 Q 5.278522705078125 1.1700000000000002 5.226022705078125 1.1722500000000002 Q 5.173522705078125 1.1745 5.148022705078125 1.1760000000000002 L 5.148022705078125 1.1445 Q 5.209522705078125 1.1445 5.235772705078125 1.122 Q 5.262022705078125 1.0995000000000001 5.262022705078125 1.0365000000000002 L 5.262022705078125 0.5670000000000002 Q 5.262022705078125 0.49950000000000017 5.238022705078125 0.46725000000000017 Q 5.214022705078125 0.43500000000000016 5.148022705078125 0.43500000000000016 L 5.148022705078125 0.4035000000000002 Q 5.196022705078125 0.40800000000000014 5.241022705078125 0.40800000000000014 Q 5.284522705078125 0.40800000000000014 5.324272705078125 0.40275000000000016 Q 5.364022705078125 0.3975000000000002 5.397022705078125 0.3870000000000001 L 5.397022705078125 0.5640000000000002 Q 5.436022705078125 0.4620000000000002 5.505772705078125 0.4222500000000001 Q 5.575522705078125 0.3825000000000002 5.652022705078125 0.3825000000000002 M 6.285 0.15450000000000008 L 6.285 0.40500000000000014 L 6.507 0.40500000000000014 L 6.507 0.43500000000000016 L 6.285 0.43500000000000016 L 6.285 1.0155 Q 6.285 1.086 6.3105 1.1145 Q 6.336 1.1430000000000002 6.381 1.1430000000000002 Q 6.426 1.1430000000000002 6.459 1.1062500000000002 Q 6.492 1.0695000000000001 6.516 0.9825000000000002 L 6.546 0.9900000000000002 Q 6.531 1.0770000000000002 6.48675 1.1370000000000002 Q 6.4425 1.197 6.351 1.197 Q 6.3 1.197 6.267 1.1842500000000002 Q 6.234 1.1715000000000002 6.2085 1.1475000000000002 Q 6.1755 1.1130000000000002 6.16275 1.0650000000000002 Q 6.15 1.0170000000000001 6.15 0.9375000000000001 L 6.15 0.43500000000000016 L 6.006 0.43500000000000016 L 6.006 0.40500000000000014 L 6.15 0.40500000000000014 L 6.15 0.1755000000000002 Q 6.1875 0.17400000000000015 6.222 0.1695000000000002 Q 6.2565 0.16500000000000004 6.285 0.15450000000000008 M 6.939005859375 0.3825000000000002 Q 7.071005859375 0.3825000000000002 7.145255859375 0.4627500000000001 Q 7.219505859375 0.5430000000000001 7.219505859375 0.7125000000000001 L 6.690005859375 0.7125000000000001 L 6.688505859375 0.6840000000000002 L 7.075505859375 0.6840000000000002 Q 7.078505859375 0.6105000000000002 7.063505859375 0.5482500000000001 Q 7.048505859375 0.4860000000000001 7.016255859375 0.4485000000000001 Q 6.984005859375 0.41100000000000014 6.933005859375 0.41100000000000014 Q 6.864005859375 0.41100000000000014 6.810755859375 0.4800000000000001 Q 6.757505859375 0.5490000000000002 6.747005859375 0.6990000000000001 L 6.751505859375 0.7050000000000001 Q 6.748505859375 0.7275000000000001 6.747005859375 0.7545000000000002 Q 6.745505859375 0.7815000000000001 6.745505859375 0.8085000000000002 Q 6.745505859375 0.9105000000000001 6.778505859375 0.9840000000000002 Q 6.811505859375 1.0575 6.864755859375 1.0957500000000002 Q 6.9180058593750005 1.1340000000000001 6.975005859375 1.1340000000000001 Q 7.020005859375 1.1340000000000001 7.060505859375 1.1197500000000002 Q 7.101005859375 1.1055000000000001 7.135505859375 1.0725000000000002 Q 7.170005859375 1.0395 7.195505859375 0.9840000000000002 L 7.225505859375 0.9960000000000002 Q 7.209005859375 1.0455 7.171505859375 1.092 Q 7.134005859375 1.1385 7.077005859375 1.16775 Q 7.020005859375 1.197 6.945005859375 1.197 Q 6.837005859375 1.197 6.759755859375 1.1475000000000002 Q 6.682505859375 1.098 6.641255859375 1.01025 Q 6.600005859375 0.9225000000000001 6.600005859375 0.8085000000000002 Q 6.600005859375 0.6765000000000001 6.642005859375 0.5812500000000002 Q 6.684005859375 0.4860000000000001 6.760505859375 0.43425000000000014 Q 6.837005859375 0.3825000000000002 6.939005859375 0.3825000000000002 M 7.57197802734375 2.220446049250313e-16 L 7.57197802734375 1.0365000000000002 Q 7.57197802734375 1.0995000000000001 7.59822802734375 1.122 Q 7.62447802734375 1.1445 7.68597802734375 1.1445 L 7.68597802734375 1.1760000000000002 Q 7.66047802734375 1.1745 7.60872802734375 1.1722500000000002 Q 7.55697802734375 1.1700000000000002 7.50447802734375 1.1700000000000002 Q 7.45347802734375 1.1700000000000002 7.40097802734375 1.1722500000000002 Q 7.34847802734375 1.1745 7.32297802734375 1.1760000000000002 L 7.32297802734375 1.1445 Q 7.38447802734375 1.1445 7.41072802734375 1.122 Q 7.43697802734375 1.0995000000000001 7.43697802734375 1.0365000000000002 L 7.43697802734375 0.18000000000000016 Q 7.43697802734375 0.11250000000000004 7.41297802734375 0.08025000000000015 Q 7.38897802734375 0.04800000000000004 7.32297802734375 0.04800000000000004 L 7.32297802734375 0.01650000000000018 Q 7.37097802734375 0.02100000000000013 7.41597802734375 0.02100000000000013 Q 7.45947802734375 0.02100000000000013 7.49922802734375 0.015750000000000153 Q 7.53897802734375 0.010500000000000176 7.57197802734375 2.220446049250313e-16 M 8.000994140625 2.220446049250313e-16 L 8.000994140625 1.0365000000000002 Q 8.000994140625 1.0995000000000001 8.027244140625 1.122 Q 8.053494140625 1.1445 8.114994140625 1.1445 L 8.114994140625 1.1760000000000002 Q 8.089494140625 1.1745 8.037744140625 1.1722500000000002 Q 7.985994140625 1.1700000000000002 7.933494140625 1.1700000000000002 Q 7.882494140625 1.1700000000000002 7.829994140625 1.1722500000000002 Q 7.777494140625 1.1745 7.751994140625 1.1760000000000002 L 7.751994140625 1.1445 Q 7.813494140625 1.1445 7.839744140625 1.122 Q 7.865994140625 1.0995000000000001 7.865994140625 1.0365000000000002 L 7.865994140625 0.18000000000000016 Q 7.865994140625 0.11250000000000004 7.841994140625 0.08025000000000015 Q 7.817994140625 0.04800000000000004 7.751994140625 0.04800000000000004 L 7.751994140625 0.01650000000000018 Q 7.799994140625 0.02100000000000013 7.844994140625 0.02100000000000013 Q 7.888494140625 0.02100000000000013 7.928244140625 0.015750000000000153 Q 7.967994140625 0.010500000000000176 8.000994140625 2.220446049250313e-16 M 8.54099560546875 0.3825000000000002 Q 8.67299560546875 0.3825000000000002 8.74724560546875 0.4627500000000001 Q 8.82149560546875 0.5430000000000001 8.82149560546875 0.7125000000000001 L 8.29199560546875 0.7125000000000001 L 8.29049560546875 0.6840000000000002 L 8.67749560546875 0.6840000000000002 Q 8.68049560546875 0.6105000000000002 8.66549560546875 0.5482500000000001 Q 8.65049560546875 0.4860000000000001 8.61824560546875 0.4485000000000001 Q 8.58599560546875 0.41100000000000014 8.53499560546875 0.41100000000000014 Q 8.46599560546875 0.41100000000000014 8.41274560546875 0.4800000000000001 Q 8.35949560546875 0.5490000000000002 8.34899560546875 0.6990000000000001 L 8.35349560546875 0.7050000000000001 Q 8.35049560546875 0.7275000000000001 8.34899560546875 0.7545000000000002 Q 8.34749560546875 0.7815000000000001 8.34749560546875 0.8085000000000002 Q 8.34749560546875 0.9105000000000001 8.38049560546875 0.9840000000000002 Q 8.41349560546875 1.0575 8.46674560546875 1.0957500000000002 Q 8.51999560546875 1.1340000000000001 8.57699560546875 1.1340000000000001 Q 8.62199560546875 1.1340000000000001 8.66249560546875 1.1197500000000002 Q 8.70299560546875 1.1055000000000001 8.73749560546875 1.0725000000000002 Q 8.77199560546875 1.0395 8.79749560546875 0.9840000000000002 L 8.82749560546875 0.9960000000000002 Q 8.81099560546875 1.0455 8.77349560546875 1.092 Q 8.73599560546875 1.1385 8.67899560546875 1.16775 Q 8.62199560546875 1.197 8.54699560546875 1.197 Q 8.43899560546875 1.197 8.36174560546875 1.1475000000000002 Q 8.28449560546875 1.098 8.24324560546875 1.01025 Q 8.20199560546875 0.9225000000000001 8.20199560546875 0.8085000000000002 Q 8.20199560546875 0.6765000000000001 8.24399560546875 0.5812500000000002 Q 8.28599560546875 0.4860000000000001 8.36249560546875 0.43425000000000014 Q 8.43899560546875 0.3825000000000002 8.54099560546875 0.3825000000000002 M 9.3104677734375 0.3825000000000002 Q 9.3584677734375 0.3825000000000002 9.4034677734375 0.3945000000000002 Q 9.4484677734375 0.4065000000000002 9.4844677734375 0.4305000000000001 Q 9.5189677734375 0.4530000000000002 9.5369677734375 0.4822500000000002 Q 9.5549677734375 0.5115000000000002 9.5549677734375 0.5460000000000002 Q 9.5549677734375 0.5865000000000001 9.5324677734375 0.6082500000000002 Q 9.5099677734375 0.6300000000000001 9.4754677734375 0.6300000000000001 Q 9.4424677734375 0.6300000000000001 9.4177177734375 0.6105000000000002 Q 9.3929677734375 0.5910000000000002 9.3929677734375 0.5550000000000002 Q 9.3929677734375 0.5205000000000002 9.4117177734375 0.49950000000000017 Q 9.430467773437499 0.47850000000000015 9.4559677734375 0.47250000000000014 Q 9.4409677734375 0.4455000000000001 9.4027177734375 0.4275000000000001 Q 9.3644677734375 0.4095000000000001 9.3209677734375 0.4095000000000001 Q 9.2834677734375 0.4095000000000001 9.2459677734375 0.4275000000000001 Q 9.2084677734375 0.4455000000000001 9.1769677734375 0.4867500000000001 Q 9.1454677734375 0.5280000000000001 9.1259677734375 0.5992500000000002 Q 9.1064677734375 0.6705000000000001 9.1064677734375 0.7770000000000001 Q 9.1064677734375 0.9090000000000001 9.1364677734375 0.9870000000000001 Q 9.1664677734375 1.0650000000000002 9.2152177734375 1.0987500000000001 Q 9.2639677734375 1.1325 9.3224677734375 1.1325 Q 9.3614677734375 1.1325 9.4019677734375 1.1175000000000002 Q 9.4424677734375 1.1025000000000003 9.478467773437501 1.06875 Q 9.5144677734375 1.0350000000000001 9.5399677734375 0.9780000000000002 L 9.5684677734375 0.9885000000000002 Q 9.5534677734375 1.0365000000000002 9.5189677734375 1.0852500000000003 Q 9.4844677734375 1.1340000000000001 9.4289677734375 1.1655000000000002 Q 9.3734677734375 1.197 9.2924677734375 1.197 Q 9.1994677734375 1.197 9.1244677734375 1.1490000000000002 Q 9.0494677734375 1.1010000000000002 9.0052177734375 1.0117500000000001 Q 8.9609677734375 0.9225000000000001 8.9609677734375 0.7995000000000001 Q 8.9609677734375 0.6765000000000001 9.0052177734375 0.5827500000000001 Q 9.0494677734375 0.4890000000000001 9.1289677734375 0.4357500000000002 Q 9.2084677734375 0.3825000000000002 9.3104677734375 0.3825000000000002 M 9.906002197265625 0.15450000000000008 L 9.906002197265625 0.40500000000000014 L 10.128002197265625 0.40500000000000014 L 10.128002197265625 0.43500000000000016 L 9.906002197265625 0.43500000000000016 L 9.906002197265625 1.0155 Q 9.906002197265625 1.086 9.931502197265624 1.1145 Q 9.957002197265625 1.1430000000000002 10.002002197265625 1.1430000000000002 Q 10.047002197265625 1.1430000000000002 10.080002197265625 1.1062500000000002 Q 10.113002197265626 1.0695000000000001 10.137002197265625 0.9825000000000002 L 10.167002197265624 0.9900000000000002 Q 10.152002197265626 1.0770000000000002 10.107752197265626 1.1370000000000002 Q 10.063502197265626 1.197 9.972002197265626 1.197 Q 9.921002197265626 1.197 9.888002197265624 1.1842500000000002 Q 9.855002197265625 1.1715000000000002 9.829502197265626 1.1475000000000002 Q 9.796502197265625 1.1130000000000002 9.783752197265626 1.0650000000000002 Q 9.771002197265625 1.0170000000000001 9.771002197265625 0.9375000000000001 L 9.771002197265625 0.43500000000000016 L 9.627002197265625 0.43500000000000016 L 9.627002197265625 0.40500000000000014 L 9.771002197265625 0.40500000000000014 L 9.771002197265625 0.1755000000000002 Q 9.808502197265625 0.17400000000000015 9.843002197265625 0.1695000000000002 Q 9.877502197265626 0.16500000000000004 9.906002197265625 0.15450000000000008" fill="#1b0940" fill-rule="nonzero"></path></g><g><path d=" M 1.8142835083007813 1.8179249999999998 Q 1.8142835083007813 1.7691749999999997 1.8311585083007813 1.7222999999999997 Q 1.8480335083007813 1.6754249999999997 1.8802835083007812 1.6367999999999998 Q 1.9125335083007813 1.598175 1.9597835083007813 1.5753 Q 2.0070335083007813 1.552425 2.0670335083007814 1.552425 Q 2.1382835083007814 1.552425 2.188908508300781 1.5850499999999998 Q 2.2395335083007812 1.6176749999999998 2.2635335083007813 1.668675 L 2.222283508300781 1.6941749999999998 Q 2.2050335083007813 1.6589249999999998 2.178783508300781 1.6382999999999999 Q 2.152533508300781 1.6176749999999998 2.1229085083007813 1.6086749999999999 Q 2.0932835083007815 1.5996749999999997 2.0640335083007812 1.5996749999999997 Q 2.016033508300781 1.5996749999999997 1.9792835083007811 1.6187999999999998 Q 1.9425335083007813 1.6379249999999999 1.9174085083007812 1.6697999999999997 Q 1.8922835083007812 1.7016749999999998 1.8795335083007814 1.7410499999999998 Q 1.8667835083007813 1.7804249999999997 1.8667835083007813 1.820925 Q 1.8667835083007813 1.8651749999999998 1.8817835083007812 1.9056749999999998 Q 1.8967835083007814 1.9461749999999998 1.9237835083007813 1.9772999999999998 Q 1.9507835083007812 2.008425 1.9871585083007812 2.0267999999999997 Q 2.023533508300781 2.045175 2.0662835083007813 2.045175 Q 2.096283508300781 2.045175 2.1277835083007814 2.034675 Q 2.1592835083007813 2.0241749999999996 2.1866585083007815 2.0024249999999997 Q 2.214033508300781 1.9806749999999997 2.2305335083007813 1.9461749999999998 L 2.274033508300781 1.9686749999999997 Q 2.2575335083007815 2.008425 2.223033508300781 2.0361749999999996 Q 2.188533508300781 2.063925 2.1461585083007813 2.078175 Q 2.1037835083007814 2.092425 2.063283508300781 2.092425 Q 2.0085335083007814 2.092425 1.9627835083007812 2.0688 Q 1.9170335083007812 2.045175 1.8836585083007813 2.0058 Q 1.8502835083007811 1.9664249999999999 1.8322835083007813 1.9172999999999998 Q 1.8142835083007813 1.868175 1.8142835083007813 1.8179249999999998 M 2.5200140991210938 2.0954249999999996 Q 2.478014099121094 2.0954249999999996 2.442389099121094 2.0793 Q 2.406764099121094 2.0631749999999998 2.380889099121094 2.03505 Q 2.3550140991210937 2.006925 2.3407640991210936 1.9705499999999998 Q 2.326514099121094 1.9341749999999998 2.326514099121094 1.8936749999999998 Q 2.326514099121094 1.8516749999999997 2.3407640991210936 1.8152999999999997 Q 2.3550140991210937 1.7789249999999999 2.381264099121094 1.7508 Q 2.407514099121094 1.7226749999999997 2.443139099121094 1.7065499999999998 Q 2.4787640991210935 1.6904249999999998 2.520764099121094 1.6904249999999998 Q 2.5627640991210936 1.6904249999999998 2.5980140991210936 1.7065499999999998 Q 2.6332640991210936 1.7226749999999997 2.6595140991210937 1.7508 Q 2.685764099121094 1.7789249999999999 2.700014099121094 1.8152999999999997 Q 2.7142640991210936 1.8516749999999997 2.7142640991210936 1.8936749999999998 Q 2.7142640991210936 1.9341749999999998 2.700014099121094 1.9705499999999998 Q 2.685764099121094 2.006925 2.6598890991210937 2.03505 Q 2.6340140991210936 2.0631749999999998 2.5983890991210936 2.0793 Q 2.5627640991210936 2.0954249999999996 2.5200140991210938 2.0954249999999996 M 2.3782640991210937 1.8944249999999998 Q 2.3782640991210937 1.937925 2.3973890991210935 1.97355 Q 2.416514099121094 2.009175 2.4487640991210937 2.0298 Q 2.4810140991210936 2.0504249999999997 2.5200140991210938 2.0504249999999997 Q 2.559014099121094 2.0504249999999997 2.591264099121094 2.029425 Q 2.6235140991210937 2.008425 2.6430140991210935 1.9720499999999999 Q 2.662514099121094 1.9356749999999998 2.662514099121094 1.8929249999999997 Q 2.662514099121094 1.8494249999999999 2.6430140991210935 1.8134249999999998 Q 2.6235140991210937 1.7774249999999998 2.591264099121094 1.7564249999999997 Q 2.559014099121094 1.7354249999999998 2.5200140991210938 1.7354249999999998 Q 2.4810140991210936 1.7354249999999998 2.4491390991210937 1.7571749999999997 Q 2.417264099121094 1.7789249999999999 2.3977640991210936 1.8145499999999999 Q 2.3782640991210937 1.8501749999999997 2.3782640991210937 1.8944249999999998 M 3.380992126464844 2.087925 L 3.3299921264648438 2.087925 L 3.3299921264648438 1.8696749999999998 Q 3.3299921264648438 1.8014249999999998 3.308242126464844 1.7691749999999997 Q 3.286492126464844 1.7369249999999998 3.2437421264648436 1.7369249999999998 Q 3.1994921264648437 1.7369249999999998 3.1646171264648437 1.7684249999999997 Q 3.1297421264648437 1.7999249999999998 3.1154921264648436 1.8494249999999999 L 3.1154921264648436 2.087925 L 3.064492126464844 2.087925 L 3.064492126464844 1.8696749999999998 Q 3.064492126464844 1.8006749999999998 3.0434921264648436 1.7687999999999997 Q 3.0224921264648437 1.7369249999999998 2.978992126464844 1.7369249999999998 Q 2.935492126464844 1.7369249999999998 2.900242126464844 1.7676749999999999 Q 2.864992126464844 1.798425 2.850742126464844 1.8486749999999998 L 2.850742126464844 2.087925 L 2.7997421264648437 2.087925 L 2.7997421264648437 1.6971749999999999 L 2.8462421264648436 1.6971749999999999 L 2.8462421264648436 1.785675 Q 2.8709921264648437 1.7399249999999997 2.909617126464844 1.715175 Q 2.948242126464844 1.6904249999999998 2.9954921264648435 1.6904249999999998 Q 3.0442421264648436 1.6904249999999998 3.074242126464844 1.7181749999999998 Q 3.1042421264648437 1.7459249999999997 3.110992126464844 1.7909249999999999 Q 3.1379921264648436 1.7414249999999998 3.1758671264648437 1.715925 Q 3.213742126464844 1.6904249999999998 3.261742126464844 1.6904249999999998 Q 3.2947421264648438 1.6904249999999998 3.3176171264648437 1.7024249999999999 Q 3.3404921264648437 1.7144249999999999 3.354367126464844 1.7365499999999998 Q 3.368242126464844 1.7586749999999998 3.3746171264648437 1.7897999999999998 Q 3.380992126464844 1.820925 3.380992126464844 1.8591749999999998 L 3.380992126464844 2.087925 M 3.688496887207031 2.0954249999999996 Q 3.639746887207031 2.0954249999999996 3.6011218872070314 2.069925 Q 3.5624968872070313 2.044425 3.5399968872070313 2.006925 L 3.5399968872070313 2.2476749999999996 L 3.488996887207031 2.2476749999999996 L 3.488996887207031 1.6971749999999999 L 3.534746887207031 1.6971749999999999 L 3.534746887207031 1.7729249999999999 Q 3.557996887207031 1.7361749999999998 3.5969968872070313 1.7132999999999998 Q 3.6359968872070314 1.6904249999999998 3.6802468872070313 1.6904249999999998 Q 3.7207468872070315 1.6904249999999998 3.754496887207031 1.7072999999999998 Q 3.7882468872070314 1.7241749999999998 3.8129968872070314 1.7526749999999998 Q 3.8377468872070315 1.7811749999999997 3.851621887207031 1.8175499999999998 Q 3.865496887207031 1.8539249999999998 3.865496887207031 1.8929249999999997 Q 3.865496887207031 1.9476749999999998 3.8433718872070313 1.9937999999999998 Q 3.8212468872070313 2.0399249999999998 3.781496887207031 2.067675 Q 3.7417468872070314 2.0954249999999996 3.688496887207031 2.0954249999999996 M 3.674246887207031 2.0504249999999997 Q 3.7064968872070314 2.0504249999999997 3.731996887207031 2.0372999999999997 Q 3.757496887207031 2.0241749999999996 3.7758718872070314 2.0016749999999996 Q 3.794246887207031 1.979175 3.803996887207031 1.9510499999999997 Q 3.8137468872070315 1.9229249999999998 3.8137468872070315 1.8929249999999997 Q 3.8137468872070315 1.8614249999999999 3.802871887207031 1.832925 Q 3.791996887207031 1.8044249999999997 3.771746887207031 1.7826749999999998 Q 3.7514968872070313 1.7609249999999999 3.7252468872070312 1.7481749999999998 Q 3.698996887207031 1.7354249999999998 3.6682468872070313 1.7354249999999998 Q 3.6487468872070314 1.7354249999999998 3.627746887207031 1.7429249999999998 Q 3.606746887207031 1.750425 3.5876218872070313 1.7642999999999998 Q 3.568496887207031 1.7781749999999998 3.5557468872070315 1.7954249999999998 Q 3.5429968872070314 1.8126749999999998 3.5399968872070313 1.8321749999999999 L 3.5399968872070313 1.9521749999999998 Q 3.5519968872070313 1.9799249999999997 3.572246887207031 2.0020499999999997 Q 3.592496887207031 2.0241749999999996 3.619121887207031 2.0372999999999997 Q 3.6457468872070313 2.0504249999999997 3.674246887207031 2.0504249999999997 M 3.920250183105469 1.9754249999999998 Q 3.920250183105469 1.938675 3.9412501831054687 1.9120499999999998 Q 3.9622501831054686 1.8854249999999997 3.9993751831054687 1.8707999999999998 Q 4.036500183105469 1.856175 4.085250183105469 1.856175 Q 4.113750183105469 1.856175 4.144500183105468 1.8606749999999999 Q 4.175250183105469 1.8651749999999998 4.199250183105469 1.8741749999999997 L 4.199250183105469 1.8411749999999998 Q 4.199250183105469 1.7916749999999997 4.1700001831054685 1.762425 Q 4.140750183105469 1.7331749999999997 4.089000183105469 1.7331749999999997 Q 4.057500183105469 1.7331749999999997 4.027125183105468 1.7447999999999997 Q 3.9967501831054686 1.7564249999999997 3.9637501831054687 1.7789249999999999 L 3.944250183105469 1.7429249999999998 Q 3.982500183105469 1.7166749999999997 4.019250183105469 1.70355 Q 4.056000183105469 1.6904249999999998 4.094250183105469 1.6904249999999998 Q 4.166250183105468 1.6904249999999998 4.208250183105469 1.7316749999999999 Q 4.250250183105469 1.7729249999999999 4.250250183105469 1.8456749999999997 L 4.250250183105469 2.0264249999999997 Q 4.250250183105469 2.0369249999999997 4.254750183105469 2.0418 Q 4.259250183105468 2.046675 4.269000183105469 2.0474249999999996 L 4.269000183105469 2.087925 Q 4.260750183105468 2.088675 4.254750183105469 2.089425 Q 4.248750183105469 2.090175 4.245750183105469 2.089425 Q 4.227000183105469 2.088675 4.2172501831054685 2.077425 Q 4.207500183105469 2.066175 4.206750183105469 2.053425 L 4.206000183105469 2.0249249999999996 Q 4.179750183105469 2.0586749999999996 4.137750183105469 2.07705 Q 4.095750183105468 2.0954249999999996 4.0522501831054685 2.0954249999999996 Q 4.014750183105469 2.0954249999999996 3.9843751831054686 2.0793 Q 3.9540001831054687 2.0631749999999998 3.9371251831054686 2.0357999999999996 Q 3.920250183105469 2.008425 3.920250183105469 1.9754249999999998 M 4.182000183105469 2.005425 Q 4.190250183105468 1.9949249999999998 4.1947501831054685 1.985175 Q 4.199250183105469 1.9754249999999998 4.199250183105469 1.9679249999999997 L 4.199250183105469 1.9109249999999998 Q 4.173750183105469 1.9011749999999998 4.1463751831054685 1.8959249999999999 Q 4.119000183105468 1.8906749999999999 4.091250183105469 1.8906749999999999 Q 4.036500183105469 1.8906749999999999 4.002750183105468 1.9124249999999998 Q 3.969000183105469 1.9341749999999998 3.969000183105469 1.9716749999999998 Q 3.969000183105469 1.9934249999999998 3.980250183105469 2.0125499999999996 Q 3.991500183105469 2.031675 4.013250183105469 2.04405 Q 4.035000183105469 2.056425 4.064250183105469 2.056425 Q 4.1010001831054685 2.056425 4.132875183105469 2.042175 Q 4.164750183105468 2.0279249999999998 4.182000183105469 2.005425 M 4.555487365722656 1.7421749999999998 Q 4.504487365722656 1.7436749999999999 4.465862365722656 1.7706749999999998 Q 4.4272373657226565 1.797675 4.411487365722656 1.844925 L 4.411487365722656 2.087925 L 4.360487365722657 2.087925 L 4.360487365722657 1.6971749999999999 L 4.408487365722657 1.6971749999999999 L 4.408487365722657 1.7909249999999999 Q 4.4287373657226565 1.7496749999999999 4.462112365722656 1.7241749999999998 Q 4.495487365722656 1.6986749999999997 4.532987365722656 1.6956749999999998 Q 4.540487365722656 1.6949249999999998 4.5461123657226565 1.6949249999999998 Q 4.551737365722656 1.6949249999999998 4.555487365722656 1.6956749999999998 L 4.555487365722656 1.7421749999999998 M 4.780503845214843 2.0954249999999996 Q 4.738503845214844 2.0954249999999996 4.702503845214844 2.0793 Q 4.6665038452148435 2.0631749999999998 4.640253845214843 2.03505 Q 4.614003845214844 2.006925 4.599378845214844 1.9701749999999998 Q 4.584753845214844 1.9334249999999997 4.584753845214844 1.891425 Q 4.584753845214844 1.8366749999999998 4.609878845214844 1.7909249999999999 Q 4.635003845214844 1.7451749999999997 4.679253845214844 1.7177999999999998 Q 4.723503845214844 1.6904249999999998 4.779753845214843 1.6904249999999998 Q 4.837503845214844 1.6904249999999998 4.880628845214844 1.7181749999999998 Q 4.9237538452148435 1.7459249999999997 4.9485038452148435 1.7912999999999997 Q 4.973253845214844 1.8366749999999998 4.973253845214844 1.8906749999999999 Q 4.973253845214844 1.8966749999999999 4.973253845214844 1.9022999999999999 Q 4.973253845214844 1.9079249999999999 4.972503845214844 1.9109249999999998 L 4.638003845214843 1.9109249999999998 Q 4.6417538452148435 1.9529249999999998 4.661628845214843 1.9855499999999997 Q 4.681503845214844 2.018175 4.7133788452148435 2.0372999999999997 Q 4.745253845214844 2.056425 4.7827538452148435 2.056425 Q 4.821003845214844 2.056425 4.855128845214844 2.0369249999999997 Q 4.889253845214844 2.017425 4.902753845214844 1.9859249999999997 L 4.9470038452148435 1.9979249999999997 Q 4.935003845214844 2.0256749999999997 4.910253845214844 2.0481749999999996 Q 4.885503845214844 2.0706749999999996 4.8521288452148434 2.0830499999999996 Q 4.818753845214844 2.0954249999999996 4.780503845214843 2.0954249999999996 M 4.636503845214844 1.8741749999999997 L 4.9252538452148436 1.8741749999999997 Q 4.922253845214843 1.8314249999999999 4.902378845214844 1.7991749999999997 Q 4.882503845214844 1.7669249999999999 4.850628845214843 1.7485499999999998 Q 4.818753845214844 1.7301749999999998 4.780503845214843 1.7301749999999998 Q 4.742253845214844 1.7301749999999998 4.710753845214843 1.7485499999999998 Q 4.679253845214844 1.7669249999999999 4.659378845214844 1.7995499999999998 Q 4.639503845214843 1.8321749999999999 4.636503845214844 1.8741749999999997 M 5.211738830566406 1.9754249999999998 Q 5.211738830566406 1.938675 5.232738830566406 1.9120499999999998 Q 5.253738830566406 1.8854249999999997 5.290863830566407 1.8707999999999998 Q 5.327988830566406 1.856175 5.376738830566406 1.856175 Q 5.4052388305664065 1.856175 5.435988830566406 1.8606749999999999 Q 5.466738830566406 1.8651749999999998 5.490738830566406 1.8741749999999997 L 5.490738830566406 1.8411749999999998 Q 5.490738830566406 1.7916749999999997 5.461488830566406 1.762425 Q 5.432238830566407 1.7331749999999997 5.3804888305664065 1.7331749999999997 Q 5.348988830566406 1.7331749999999997 5.318613830566406 1.7447999999999997 Q 5.2882388305664065 1.7564249999999997 5.255238830566406 1.7789249999999999 L 5.235738830566406 1.7429249999999998 Q 5.273988830566406 1.7166749999999997 5.3107388305664065 1.70355 Q 5.347488830566406 1.6904249999999998 5.385738830566407 1.6904249999999998 Q 5.457738830566406 1.6904249999999998 5.4997388305664066 1.7316749999999999 Q 5.541738830566406 1.7729249999999999 5.541738830566406 1.8456749999999997 L 5.541738830566406 2.0264249999999997 Q 5.541738830566406 2.0369249999999997 5.5462388305664065 2.0418 Q 5.550738830566406 2.046675 5.560488830566406 2.0474249999999996 L 5.560488830566406 2.087925 Q 5.552238830566406 2.088675 5.5462388305664065 2.089425 Q 5.540238830566406 2.090175 5.537238830566406 2.089425 Q 5.518488830566406 2.088675 5.508738830566406 2.077425 Q 5.4989888305664065 2.066175 5.4982388305664065 2.053425 L 5.4974888305664065 2.0249249999999996 Q 5.471238830566406 2.0586749999999996 5.4292388305664065 2.07705 Q 5.387238830566406 2.0954249999999996 5.343738830566406 2.0954249999999996 Q 5.306238830566406 2.0954249999999996 5.275863830566406 2.0793 Q 5.245488830566407 2.0631749999999998 5.228613830566406 2.0357999999999996 Q 5.211738830566406 2.008425 5.211738830566406 1.9754249999999998 M 5.4734888305664064 2.005425 Q 5.481738830566406 1.9949249999999998 5.486238830566406 1.985175 Q 5.490738830566406 1.9754249999999998 5.490738830566406 1.9679249999999997 L 5.490738830566406 1.9109249999999998 Q 5.465238830566406 1.9011749999999998 5.437863830566406 1.8959249999999999 Q 5.410488830566406 1.8906749999999999 5.382738830566407 1.8906749999999999 Q 5.327988830566406 1.8906749999999999 5.294238830566406 1.9124249999999998 Q 5.260488830566406 1.9341749999999998 5.260488830566406 1.9716749999999998 Q 5.260488830566406 1.9934249999999998 5.271738830566406 2.0125499999999996 Q 5.282988830566406 2.031675 5.304738830566406 2.04405 Q 5.326488830566406 2.056425 5.355738830566406 2.056425 Q 5.392488830566406 2.056425 5.424363830566406 2.042175 Q 5.456238830566406 2.0279249999999998 5.4734888305664064 2.005425 M 5.980476013183594 2.087925 L 5.929476013183594 2.087925 L 5.929476013183594 1.8696749999999998 Q 5.929476013183594 1.8006749999999998 5.909226013183594 1.7687999999999997 Q 5.888976013183594 1.7369249999999998 5.8454760131835934 1.7369249999999998 Q 5.815476013183594 1.7369249999999998 5.786226013183594 1.75155 Q 5.756976013183594 1.7661749999999998 5.734851013183594 1.7912999999999997 Q 5.712726013183594 1.8164249999999997 5.702976013183593 1.8486749999999998 L 5.702976013183593 2.087925 L 5.651976013183594 2.087925 L 5.651976013183594 1.6971749999999999 L 5.698476013183594 1.6971749999999999 L 5.698476013183594 1.785675 Q 5.714226013183594 1.7571749999999997 5.739726013183594 1.7357999999999998 Q 5.765226013183594 1.7144249999999999 5.797476013183593 1.7024249999999999 Q 5.829726013183594 1.6904249999999998 5.864226013183594 1.6904249999999998 Q 5.896476013183594 1.6904249999999998 5.918976013183594 1.7024249999999999 Q 5.9414760131835935 1.7144249999999999 5.954976013183594 1.7365499999999998 Q 5.968476013183594 1.7586749999999998 5.974476013183594 1.7897999999999998 Q 5.980476013183594 1.820925 5.980476013183594 1.8591749999999998 L 5.980476013183594 2.087925 M 6.062981872558594 1.8936749999999998 Q 6.062981872558594 1.838175 6.085856872558594 1.7920499999999997 Q 6.108731872558594 1.7459249999999997 6.149231872558594 1.7181749999999998 Q 6.1897318725585935 1.6904249999999998 6.241481872558594 1.6904249999999998 Q 6.290231872558594 1.6904249999999998 6.328856872558593 1.7163 Q 6.367481872558594 1.7421749999999998 6.389231872558594 1.7789249999999999 L 6.389231872558594 1.540425 L 6.440231872558594 1.540425 L 6.440231872558594 2.0264249999999997 Q 6.440231872558594 2.0369249999999997 6.444731872558593 2.0418 Q 6.4492318725585935 2.046675 6.458231872558594 2.0474249999999996 L 6.458231872558594 2.087925 Q 6.443231872558593 2.090175 6.434981872558594 2.089425 Q 6.419231872558594 2.088675 6.407231872558594 2.076675 Q 6.395231872558594 2.064675 6.395231872558594 2.0504249999999997 L 6.395231872558594 2.0121749999999996 Q 6.371981872558594 2.0504249999999997 6.3322318725585935 2.0729249999999997 Q 6.292481872558594 2.0954249999999996 6.249731872558594 2.0954249999999996 Q 6.209231872558593 2.0954249999999996 6.175106872558594 2.078925 Q 6.140981872558593 2.0624249999999997 6.115856872558593 2.033925 Q 6.090731872558594 2.005425 6.076856872558594 1.9690499999999997 Q 6.062981872558594 1.9326749999999997 6.062981872558594 1.8936749999999998 M 6.389231872558594 1.9536749999999998 L 6.389231872558594 1.832925 Q 6.379481872558594 1.8059249999999998 6.357731872558594 1.7837999999999998 Q 6.335981872558594 1.7616749999999999 6.3086068725585935 1.7485499999999998 Q 6.281231872558593 1.7354249999999998 6.254231872558594 1.7354249999999998 Q 6.222731872558594 1.7354249999999998 6.197231872558594 1.7485499999999998 Q 6.171731872558594 1.7616749999999999 6.153356872558594 1.7841749999999998 Q 6.134981872558594 1.8066749999999998 6.125231872558594 1.8351749999999998 Q 6.115481872558593 1.8636749999999997 6.115481872558593 1.8936749999999998 Q 6.115481872558593 1.9251749999999999 6.126356872558594 1.9536749999999998 Q 6.137231872558594 1.9821749999999998 6.157481872558594 2.0042999999999997 Q 6.177731872558594 2.0264249999999997 6.203981872558594 2.0384249999999997 Q 6.230231872558594 2.0504249999999997 6.2609818725585935 2.0504249999999997 Q 6.280481872558593 2.0504249999999997 6.301481872558594 2.042925 Q 6.322481872558594 2.0354249999999996 6.341606872558594 2.0223 Q 6.360731872558594 2.009175 6.373481872558594 1.9911749999999997 Q 6.386231872558594 1.973175 6.389231872558594 1.9536749999999998 M 7.068742492675781 1.6551749999999998 Q 7.057492492675781 1.6424249999999998 7.042492492675781 1.6322999999999999 Q 7.027492492675782 1.622175 7.008742492675781 1.6146749999999999 Q 6.989992492675781 1.6071749999999998 6.968617492675781 1.6026749999999998 Q 6.947242492675781 1.598175 6.923242492675781 1.598175 Q 6.853492492675781 1.598175 6.820867492675781 1.6247999999999998 Q 6.788242492675781 1.6514249999999997 6.788242492675781 1.6971749999999999 Q 6.788242492675781 1.7286749999999997 6.803617492675781 1.7466749999999998 Q 6.818992492675782 1.7646749999999998 6.851992492675781 1.7759249999999998 Q 6.8849924926757815 1.7871749999999997 6.935992492675782 1.7991749999999997 Q 6.992992492675781 1.8111749999999998 7.034242492675781 1.8276749999999997 Q 7.075492492675782 1.844175 7.097992492675782 1.8722999999999999 Q 7.1204924926757815 1.9004249999999998 7.1204924926757815 1.9484249999999999 Q 7.1204924926757815 1.985175 7.106242492675781 2.0121749999999996 Q 7.091992492675781 2.0391749999999997 7.066492492675781 2.057175 Q 7.040992492675781 2.0751749999999998 7.005742492675782 2.0837999999999997 Q 6.970492492675781 2.092425 6.928492492675781 2.092425 Q 6.887242492675782 2.092425 6.849367492675781 2.0837999999999997 Q 6.811492492675781 2.0751749999999998 6.777742492675781 2.0583 Q 6.7439924926757815 2.041425 6.714742492675781 2.0151749999999997 L 6.740992492675781 1.9724249999999999 Q 6.755242492675781 1.9874249999999998 6.775117492675781 2.0005499999999996 Q 6.794992492675782 2.0136749999999997 6.819367492675781 2.0241749999999996 Q 6.843742492675781 2.034675 6.871867492675781 2.0403 Q 6.899992492675781 2.045925 6.929992492675781 2.045925 Q 6.993742492675781 2.045925 7.029367492675782 2.022675 Q 7.064992492675781 1.9994249999999998 7.064992492675781 1.9536749999999998 Q 7.064992492675781 1.9206749999999997 7.046992492675781 1.9007999999999998 Q 7.028992492675782 1.8809249999999997 6.992992492675781 1.868175 Q 6.956992492675782 1.8554249999999999 6.904492492675781 1.8434249999999999 Q 6.848992492675781 1.8306749999999998 6.810742492675781 1.8149249999999997 Q 6.772492492675782 1.7991749999999997 6.753367492675781 1.7732999999999999 Q 6.734242492675781 1.7474249999999998 6.734242492675781 1.7046749999999997 Q 6.734242492675781 1.6551749999999998 6.758617492675781 1.6210499999999999 Q 6.782992492675781 1.586925 6.825742492675781 1.5692999999999997 Q 6.868492492675781 1.551675 6.923992492675781 1.551675 Q 6.959242492675782 1.551675 6.989617492675781 1.5587999999999997 Q 7.019992492675781 1.5659249999999998 7.045867492675781 1.5794249999999996 Q 7.0717424926757815 1.5929249999999997 7.094242492675781 1.6131749999999998 L 7.068742492675781 1.6551749999999998 M 7.170738464355469 1.9754249999999998 Q 7.170738464355469 1.938675 7.191738464355469 1.9120499999999998 Q 7.212738464355469 1.8854249999999997 7.249863464355469 1.8707999999999998 Q 7.286988464355469 1.856175 7.335738464355469 1.856175 Q 7.364238464355469 1.856175 7.394988464355468 1.8606749999999999 Q 7.425738464355469 1.8651749999999998 7.449738464355469 1.8741749999999997 L 7.449738464355469 1.8411749999999998 Q 7.449738464355469 1.7916749999999997 7.4204884643554685 1.762425 Q 7.391238464355469 1.7331749999999997 7.339488464355469 1.7331749999999997 Q 7.307988464355469 1.7331749999999997 7.277613464355468 1.7447999999999997 Q 7.247238464355469 1.7564249999999997 7.214238464355469 1.7789249999999999 L 7.194738464355469 1.7429249999999998 Q 7.2329884643554685 1.7166749999999997 7.269738464355469 1.70355 Q 7.306488464355469 1.6904249999999998 7.344738464355469 1.6904249999999998 Q 7.416738464355468 1.6904249999999998 7.458738464355469 1.7316749999999999 Q 7.500738464355469 1.7729249999999999 7.500738464355469 1.8456749999999997 L 7.500738464355469 2.0264249999999997 Q 7.500738464355469 2.0369249999999997 7.505238464355469 2.0418 Q 7.509738464355468 2.046675 7.519488464355469 2.0474249999999996 L 7.519488464355469 2.087925 Q 7.511238464355468 2.088675 7.505238464355469 2.089425 Q 7.499238464355469 2.090175 7.496238464355469 2.089425 Q 7.477488464355469 2.088675 7.4677384643554685 2.077425 Q 7.457988464355469 2.066175 7.457238464355469 2.053425 L 7.456488464355469 2.0249249999999996 Q 7.430238464355469 2.0586749999999996 7.388238464355469 2.07705 Q 7.346238464355468 2.0954249999999996 7.3027384643554685 2.0954249999999996 Q 7.265238464355469 2.0954249999999996 7.234863464355469 2.0793 Q 7.204488464355469 2.0631749999999998 7.1876134643554686 2.0357999999999996 Q 7.170738464355469 2.008425 7.170738464355469 1.9754249999999998 M 7.432488464355469 2.005425 Q 7.440738464355468 1.9949249999999998 7.4452384643554685 1.985175 Q 7.449738464355469 1.9754249999999998 7.449738464355469 1.9679249999999997 L 7.449738464355469 1.9109249999999998 Q 7.424238464355469 1.9011749999999998 7.3968634643554685 1.8959249999999999 Q 7.369488464355468 1.8906749999999999 7.341738464355469 1.8906749999999999 Q 7.286988464355469 1.8906749999999999 7.253238464355468 1.9124249999999998 Q 7.219488464355469 1.9341749999999998 7.219488464355469 1.9716749999999998 Q 7.219488464355469 1.9934249999999998 7.230738464355468 2.0125499999999996 Q 7.241988464355469 2.031675 7.263738464355469 2.04405 Q 7.285488464355469 2.056425 7.314738464355469 2.056425 Q 7.3514884643554685 2.056425 7.383363464355469 2.042175 Q 7.415238464355468 2.0279249999999998 7.432488464355469 2.005425 M 7.715232238769532 2.087925 L 7.556982238769531 1.6971749999999999 L 7.610232238769531 1.6971749999999999 L 7.743732238769531 2.0369249999999997 L 7.8779822387695315 1.6971749999999999 L 7.928232238769532 1.6971749999999999 L 7.769982238769531 2.087925 L 7.715232238769532 2.087925 M 8.153993225097656 2.0954249999999996 Q 8.111993225097656 2.0954249999999996 8.075993225097656 2.0793 Q 8.039993225097657 2.0631749999999998 8.013743225097656 2.03505 Q 7.987493225097657 2.006925 7.972868225097656 1.9701749999999998 Q 7.9582432250976565 1.9334249999999997 7.9582432250976565 1.891425 Q 7.9582432250976565 1.8366749999999998 7.9833682250976565 1.7909249999999999 Q 8.008493225097656 1.7451749999999997 8.052743225097656 1.7177999999999998 Q 8.096993225097656 1.6904249999999998 8.153243225097656 1.6904249999999998 Q 8.210993225097656 1.6904249999999998 8.254118225097656 1.7181749999999998 Q 8.297243225097656 1.7459249999999997 8.321993225097657 1.7912999999999997 Q 8.346743225097656 1.8366749999999998 8.346743225097656 1.8906749999999999 Q 8.346743225097656 1.8966749999999999 8.346743225097656 1.9022999999999999 Q 8.346743225097656 1.9079249999999999 8.345993225097656 1.9109249999999998 L 8.011493225097656 1.9109249999999998 Q 8.015243225097656 1.9529249999999998 8.035118225097657 1.9855499999999997 Q 8.054993225097656 2.018175 8.086868225097657 2.0372999999999997 Q 8.118743225097656 2.056425 8.156243225097656 2.056425 Q 8.194493225097656 2.056425 8.228618225097657 2.0369249999999997 Q 8.262743225097656 2.017425 8.276243225097657 1.9859249999999997 L 8.320493225097657 1.9979249999999997 Q 8.308493225097656 2.0256749999999997 8.283743225097655 2.0481749999999996 Q 8.258993225097656 2.0706749999999996 8.225618225097657 2.0830499999999996 Q 8.192243225097656 2.0954249999999996 8.153993225097656 2.0954249999999996 M 8.009993225097656 1.8741749999999997 L 8.298743225097656 1.8741749999999997 Q 8.295743225097656 1.8314249999999999 8.275868225097657 1.7991749999999997 Q 8.255993225097656 1.7669249999999999 8.224118225097657 1.7485499999999998 Q 8.192243225097656 1.7301749999999998 8.153993225097656 1.7301749999999998 Q 8.115743225097656 1.7301749999999998 8.084243225097657 1.7485499999999998 Q 8.052743225097656 1.7669249999999999 8.032868225097657 1.7995499999999998 Q 8.012993225097656 1.8321749999999999 8.009993225097656 1.8741749999999997" fill="#1b0d48" fill-rule="nonzero"></path></g></g><defs><clipPath id="SvgjsClipPath1002"><path d=" M 2.7571923021162754 -9.041896876475072 h 4.637623452408074 v 8.791896876475072 h -4.637623452408074 Z"></path></clipPath><clipPath id="SvgjsClipPath10009e8d54bc-25a3-45f9-94b2-0739bf0a1498"><path d=" M 2.7571923021162754 -9.041896876475072 L 7.39481575452435 -9.041896876475072 L 7.39481575452435 -0.25 L 2.7571923021162754 -0.25 Z"></path></clipPath></defs></svg>